<?xml version="1.0" encoding="UTF-8" standalone="no"?>
<!-- Created with Inkscape (http://www.inkscape.org/) -->

<svg
   width="512"
   height="512"
   viewBox="0 0 135.46666 135.46667"
   version="1.1"
   id="svg1"
   xml:space="preserve"
   sodipodi:docname="logo.svg"
   inkscape:version="1.3.2 (091e20e, 2023-11-25, custom)"
   xmlns:inkscape="http://www.inkscape.org/namespaces/inkscape"
   xmlns:sodipodi="http://sodipodi.sourceforge.net/DTD/sodipodi-0.dtd"
   xmlns="http://www.w3.org/2000/svg"
   xmlns:svg="http://www.w3.org/2000/svg"><sodipodi:namedview
     id="namedview1"
     pagecolor="#505050"
     bordercolor="#ffffff"
     borderopacity="1"
     inkscape:showpageshadow="0"
     inkscape:pageopacity="0"
     inkscape:pagecheckerboard="1"
     inkscape:deskcolor="#505050"
     inkscape:zoom="1.4355469"
     inkscape:cx="202.7102"
     inkscape:cy="446.86803"
     inkscape:window-width="1920"
     inkscape:window-height="991"
     inkscape:window-x="-9"
     inkscape:window-y="346"
     inkscape:window-maximized="1"
     inkscape:current-layer="layer2" /><defs
     id="defs1" /><g
     inkscape:groupmode="layer"
     id="layer3"
     inkscape:label="Flama"
     sodipodi:insensitive="true"
     style="display:inline"><path
       d="M 12,12 C 14,9.04 12,5 11,4 11,7.038 9.227,8.741 8,10 6.774,11.26 6,13.24 6,15 a 6,6 0 1 0 12,0 c 0,-1.532 -1.056,-3.94 -2,-5 -1.786,3 -2.791,3 -4,2 z"
       id="path2"
       style="display:inline;fill:#db3832;fill-opacity:1;stroke:#9a2824;stroke-width:0.246083;stroke-linecap:round;stroke-linejoin:round;stroke-dasharray:none;stroke-opacity:1"
       transform="matrix(7.854933,0,0,7.854933,-26.525863,-30.453385)"
       inkscape:label="Rojo"
       sodipodi:insensitive="true" /><path
       d="M 12.04404,11.245454 C 5.8841204,8.2899223 7.6680892,4.0070592 5.0390831,-0.94227923 3.3036262,2.0202661 2.699419,5.2167318 2.456082,8.6639161 c 0.1699109,3.6267279 0.4009884,4.7970769 2.2686923,7.6573649 1.4729585,2.255757 4.8151892,3.985108 8.1288977,3.985108 3.313708,0 6.006274,-1.982561 7.032694,-5.457298 0.813142,-2.752727 -0.258301,-6.1655341 -1.622727,-7.9427315 -2.555446,2.9650252 -3.296832,5.1292455 -6.219599,4.3390945 z"
       id="path2-5"
       style="display:inline;fill:#f3e32a;fill-opacity:1;stroke:#d5c119;stroke-width:0.626921;stroke-linecap:round;stroke-linejoin:round;stroke-dasharray:none;stroke-opacity:1"
       transform="matrix(2.6348713,0,0,2.6348713,35.216062,72.64048)"
       sodipodi:nodetypes="cccssscc"
       inkscape:label="Amarillo"
       sodipodi:insensitive="true" /></g><g
     inkscape:groupmode="layer"
     id="layer2"
     inkscape:label="Extras"
     style="display:inline"><path
       id="path11"
       d="m 10,21 v -2 m 4,2 v -2 m 7,-5 h -2 m 2,-4 H 19 M 14,3 V 5 M 10,3 V 5 M 3,14 H 5 M 3,10 H 5 M 9,9 h 6 v 6 H 9 Z M 5,5 M 5,6 A 1,1 0 0 1 6,5 h 12 a 1,1 0 0 1 1,1 v 12 a 1,1 0 0 1 -1,1 H 6 A 1,1 0 0 1 5,18 Z"
       style="display:none;fill:#25a8e7;fill-opacity:1;stroke:#296dbb;stroke-width:1.99994;stroke-linecap:round;stroke-linejoin:round;stroke-dasharray:none;stroke-opacity:1"
       transform="matrix(2.0769103,0,0,2.0769103,72.391587,79.00617)"
       inkscape:label="IoT"
       sodipodi:insensitive="true" /><path
       id="path8"
       d="m 15,18 v 3 M 9,18 v 3 M 16,3 15,5 M 8,3 9,5 M 7,9 h 10 v 8 a 1,1 0 0 1 -1,1 H 8 A 1,1 0 0 1 7,17 V 9 a 5,5 0 0 1 10,0 m 3,1 v 6 M 4,10 v 6"
       style="display:inline;fill:#3ae153;fill-opacity:1;stroke:#30b043;stroke-width:2;stroke-linecap:round;stroke-linejoin:round;stroke-opacity:1"
       transform="matrix(2.0728525,0,0,2.0728525,73.195867,79.451503)"
       inkscape:label="Android"
       sodipodi:insensitive="true" /></g></svg>
